<!-- Generated by IcoMoon.io -->
<svg version="1.1" xmlns="http://www.w3.org/2000/svg" width="20" height="20" viewBox="0 0 20 20">
<title>lightbulb_outline</title>
<path d="M12.383 10.898q1.797-1.25 1.797-3.398 0-1.719-1.23-2.949t-2.949-1.23-2.949 1.23-1.23 2.949q0 0.898 0.527 1.875t1.27 1.523l0.703 0.508v1.914h3.359v-1.914zM10 1.68q2.422 0 4.121 1.699t1.699 4.121q0 3.047-2.5 4.766v1.914q0 0.352-0.234 0.586t-0.586 0.234h-5q-0.352 0-0.586-0.234t-0.234-0.586v-1.914q-2.5-1.719-2.5-4.766 0-2.422 1.699-4.121t4.121-1.699zM7.5 17.5v-0.82h5v0.82q0 0.352-0.234 0.586t-0.586 0.234h-3.359q-0.352 0-0.586-0.234t-0.234-0.586z"></path>
</svg>
