<!-- Generated by IcoMoon.io -->
<svg version="1.1" xmlns="http://www.w3.org/2000/svg" width="20" height="20" viewBox="0 0 20 20">
<title>psychology</title>
<path d="M10.82 7.148q-0.469 0-0.82 0.352t-0.352 0.82q0 0.508 0.352 0.859t0.82 0.352q0.508 0 0.859-0.352t0.352-0.859q0-0.469-0.352-0.82t-0.859-0.352zM10.82 2.5q-1.172 0-2.188 0.43t-1.816 1.191-1.27 1.758-0.547 2.168l-1.602 2.109q-0.156 0.234-0.039 0.449t0.391 0.215h1.25v2.5q0 0.703 0.488 1.191t1.191 0.488h0.82v2.5h5.82v-3.906q1.484-0.703 2.422-2.109t0.938-3.164q0-1.211-0.469-2.266t-1.27-1.855-1.855-1.25-2.266-0.449zM13.32 8.32v0.352l0.703 0.547q0.078 0.078 0.039 0.195l-0.664 1.172q-0.078 0.117-0.234 0.078l-0.82-0.352q-0.234 0.195-0.547 0.313l-0.117 0.898q-0.039 0.156-0.195 0.156h-1.328q-0.117 0-0.156-0.156l-0.117-0.898q-0.313-0.117-0.586-0.313l-0.82 0.352q-0.117 0.039-0.195-0.078l-0.664-1.172q-0.078-0.117 0.039-0.195l0.703-0.547q0-0.078-0.020-0.176t-0.020-0.176 0.020-0.156 0.020-0.156l-0.703-0.547q-0.117-0.078-0.039-0.234l0.664-1.133q0.078-0.117 0.195-0.078l0.859 0.352q0.273-0.234 0.547-0.352l0.117-0.859q0.039-0.156 0.156-0.156h1.328q0.156 0 0.195 0.156l0.117 0.859q0.273 0.117 0.547 0.352l0.82-0.352q0.156-0.039 0.234 0.078l0.664 1.133q0.078 0.156-0.039 0.234l-0.742 0.547q0.039 0.117 0.039 0.313z"></path>
</svg>
